<?xml version="1.0" encoding="utf-8"?>
<!-- Generator: Adobe Illustrator 24.2.1, SVG Export Plug-In . SVG Version: 6.00 Build 0)  -->
<svg version="1.1" id="Layer_1" xmlns="http://www.w3.org/2000/svg" xmlns:xlink="http://www.w3.org/1999/xlink" x="0px" y="0px"
	 viewBox="0 0 94 123" style="enable-background:new 0 0 94 123;" xml:space="preserve">
<g>
	<path d="M85.8,70.1H42.7c-2.4,0-4.3,1.9-4.3,4.3c0,1.9,1.2,3.5,2.9,4v24.7c0,2.4,2.1,4.3,4.8,4.3h36.5c2.6,0,4.8-1.9,4.8-4.3V78.5
		c1.7-0.6,2.9-2.2,2.9-4C90.1,72.1,88.2,70.1,85.8,70.1z M61.4,104.6V94.6c0-0.8,0.6-1.4,1.4-1.4h2.9c0.8,0,1.4,0.6,1.4,1.4v10.1
		H61.4z M85.8,75.9h-8.6c-0.8,0-1.4,0.6-1.4,1.4s0.6,1.4,1.4,1.4h7.2v24.4c0,0.8-0.9,1.4-1.9,1.4H70V94.6c0-2.4-1.9-4.3-4.3-4.3
		h-2.9c-2.4,0-4.3,1.9-4.3,4.3v10.1H46c-1,0-1.9-0.7-1.9-1.4V78.8h27.3c0.8,0,1.4-0.6,1.4-1.4s-0.6-1.4-1.4-1.4H42.7
		c-0.8,0-1.4-0.6-1.4-1.4s0.6-1.4,1.4-1.4h43.1c0.8,0,1.4,0.6,1.4,1.4S86.6,75.9,85.8,75.9z"/>
	<path d="M54.2,81.6h-5.7c-0.8,0-1.4,0.6-1.4,1.4v5.7c0,0.8,0.6,1.4,1.4,1.4h5.7c0.8,0,1.4-0.6,1.4-1.4v-5.7
		C55.6,82.3,55,81.6,54.2,81.6z M52.7,87.4h-2.9v-2.9h2.9V87.4z"/>
	<path d="M72.9,83.1v5.7c0,0.8,0.6,1.4,1.4,1.4h5.7c0.8,0,1.4-0.6,1.4-1.4v-5.7c0-0.8-0.6-1.4-1.4-1.4h-5.7
		C73.5,81.6,72.9,82.3,72.9,83.1z M75.7,84.5h2.9v2.9h-2.9V84.5z"/>
	<path d="M91.6,27H64.4L22.9,15.6c-0.4-0.1-0.8,0-1.2,0.2L4.9,27H2.4C1.6,27,1,27.6,1,28.4v5.7c0,0.8,0.6,1.4,1.4,1.4h1.4v4.3
		c0,0.8,0.6,1.4,1.4,1.4h8.6c0.8,0,1.4-0.6,1.4-1.4v-4.3h2.9v63.2h-1.4c-2.4,0-4.3,1.9-4.3,4.3v2.9c0,0.8,0.6,1.4,1.4,1.4h17.2
		c0.8,0,1.4-0.6,1.4-1.4v-2.9c0-2.4-1.9-4.3-4.3-4.3h-1.4V35.6h35.9v7.2c0,0.8,0.6,1.4,1.4,1.4c0.8,0,1.4,0.6,1.4,1.4
		s-0.6,1.4-1.4,1.4c-0.5,0-1-0.3-1.2-0.7c-0.4-0.7-1.3-0.9-2-0.5c-0.7,0.4-0.9,1.3-0.5,2c0.2,0.4,0.6,0.8,1,1.1L41.8,64.7
		c-0.5,0.4-0.7,1-0.5,1.6c0.2,0.6,0.7,1,1.4,1h43.1c0.6,0,1.2-0.4,1.4-1s0-1.2-0.5-1.6l-10.1-8.1c-0.6-0.5-1.5-0.4-2,0.2
		c-0.5,0.6-0.4,1.5,0.2,2l6.9,5.5H46.8l17.5-14l6.3,5c0.6,0.5,1.5,0.4,2-0.2c0.5-0.6,0.4-1.5-0.2-2L67,49c0.9-0.8,1.5-2,1.5-3.3
		c0-1.9-1.2-3.5-2.9-4.1v-6h25.9c0.8,0,1.4-0.6,1.4-1.4v-5.7C93,27.6,92.4,27,91.6,27z M66.7,29.9l-3.9,2.6l-3.9-2.6H66.7z
		 M40.8,32.8h-7.8l3.9-2.6L40.8,32.8z M41.7,29.9h7.8l-3.9,2.6L41.7,29.9z M54.2,30.2l3.9,2.6h-7.8L54.2,30.2z M71.4,30.2l3.9,2.6
		h-7.8L71.4,30.2z M76.2,29.9h7.8l-3.9,2.6L76.2,29.9z M26.6,27l-2-8l29.1,8H26.6z M21.1,34.2v-1l2.6,3.9l-2.6,3.9V34.2z M21.4,62.9
		l2.6-3.9v7.8L21.4,62.9z M23.7,71.6l-2.6,3.9v-7.8L23.7,71.6z M21.1,58.2v-7.8l2.6,3.9L21.1,58.2z M21.4,45.7l2.6-3.9v7.8
		L21.4,45.7z M24,76.3v7.8l-2.6-3.9L24,76.3z M21.1,84.9l2.6,3.9l-2.6,3.9V84.9z M21.2,28.2l1.3-5.3l1.4,5.7v3.7L21.2,28.2z
		 M20.3,20.2L18.6,27h-8.5L20.3,20.2z M12.5,38.5H6.8v-2.9h5.7V38.5z M3.9,32.8v-2.9h14.4v2.9H3.9z M29.8,103.2v1.4H15.4v-1.4
		c0-0.8,0.6-1.4,1.4-1.4h11.5C29.1,101.8,29.8,102.4,29.8,103.2z M21.1,98.9v-1l2.9-4.3v5.3H21.1z M26.9,29.9h5.3l-4.3,2.9h-1V29.9z
		 M90.1,32.8h-5.3l4.3-2.9h1V32.8z"/>
</g>
</svg>
