<?xml version="1.0" encoding="utf-8"?>
<!-- Generator: Adobe Illustrator 24.2.1, SVG Export Plug-In . SVG Version: 6.00 Build 0)  -->
<svg version="1.1" id="Layer_1" xmlns="http://www.w3.org/2000/svg" xmlns:xlink="http://www.w3.org/1999/xlink" x="0px" y="0px"
	 viewBox="0 0 176 123" style="enable-background:new 0 0 176 123;" xml:space="preserve">
<g>
	<path d="M79.2,45.6c-1,0-1.8,0.8-1.8,1.8v1.8c0,1,0.8,1.8,1.8,1.8s1.8-0.8,1.8-1.8v-1.8C80.9,46.4,80.1,45.6,79.2,45.6z"/>
	<path d="M96.8,50.9c1,0,1.8-0.8,1.8-1.8v-1.8c0-1-0.8-1.8-1.8-1.8s-1.8,0.8-1.8,1.8v1.8C95.1,50.1,95.9,50.9,96.8,50.9z"/>
	<path d="M107.4,82.7H95.1v-8.3c8.2-2.9,14.1-10.7,14.1-20v-3.5c3.9,0,7.1-3.2,7.1-7.1c0-1.9-0.7-3.5-1.9-4.8c1.2-1,1.9-2.4,1.9-4
		c0-2.3-1.5-4.3-3.6-5c-0.6-10.4-8.1-19-18.3-21c-1.1-2.4-3.5-4-6.3-4s-5.2,1.6-6.3,4C71.4,11.1,64,19.7,63.3,30
		c-2.1,0.7-3.6,2.7-3.6,5c0,1.6,0.8,3.1,1.9,4c-1.2,1.3-1.9,2.9-1.9,4.8c0,3.9,3.2,7.1,7.1,7.1v3.5c0,9.2,5.9,17,14.1,20v8.3H68.6
		c-12.7,0-23,10.3-23,23v10.6c0,1,0.8,1.8,1.8,1.8h81.2c1,0,1.8-0.8,1.8-1.8v-10.6C130.4,93,120.1,82.7,107.4,82.7z M112.7,87v13.4
		H91.4l9.9-14.1h6.1C109.3,86.2,111,86.5,112.7,87z M63.3,103.9h23v3.5h-23V103.9z M88,91.5c3.3,0,6-2.3,6.8-5.3H97L88,99l-9-12.8
		h2.2C82,89.3,84.7,91.5,88,91.5z M109.2,47.4v-7.1c1.9,0,3.5,1.6,3.5,3.5S111.1,47.4,109.2,47.4z M109.1,29.7h-14V12.8
		C102.8,15,108.4,21.7,109.1,29.7z M88,8.5c1.9,0,3.5,1.6,3.5,3.5v17.7h-7.1V12.1C84.5,10.1,86.1,8.5,88,8.5z M80.9,12.8v16.9h-14
		C67.6,21.7,73.2,15,80.9,12.8z M63.3,43.8c0-1.9,1.6-3.5,3.5-3.5v7.1C64.9,47.4,63.3,45.8,63.3,43.8z M70.3,54.4v-5.3v-8.8h23
		c1,0,1.8-0.8,1.8-1.8s-0.8-1.8-1.8-1.8H65c-1,0-1.8-0.8-1.8-1.8s0.8-1.8,1.8-1.8H111c1,0,1.8,0.8,1.8,1.8s-0.8,1.8-1.8,1.8h-10.6
		c-1,0-1.8,0.8-1.8,1.8s0.8,1.8,1.8,1.8h5.3v8.8v5.3c0,9.7-7.9,17.7-17.7,17.7S70.3,64.2,70.3,54.4z M88,75.6c1.2,0,2.4-0.1,3.5-0.3
		v9.1c0,1.9-1.6,3.5-3.5,3.5s-3.5-1.6-3.5-3.5v-9.1C85.6,75.5,86.8,75.6,88,75.6z M74.7,86.2l9.9,14.1H63.3V87
		c1.7-0.5,3.5-0.8,5.3-0.8H74.7z M49.2,105.6c0-7.5,4.3-14.1,10.6-17.3v26.1H49.2V105.6z M63.3,110.9h23v3.5h-23V110.9z M89.8,114.5
		v-3.5h5.3c1,0,1.8-0.8,1.8-1.8s-0.8-1.8-1.8-1.8h-5.3v-3.5h23v3.5h-10.6c-1,0-1.8,0.8-1.8,1.8s0.8,1.8,1.8,1.8h10.6v3.5H89.8z
		 M126.8,114.5h-10.6V88.4c6.3,3.2,10.6,9.7,10.6,17.3V114.5z"/>
</g>
</svg>
