<?xml version="1.0" encoding="utf-8"?>
<!-- Generator: Adobe Illustrator 24.2.1, SVG Export Plug-In . SVG Version: 6.00 Build 0)  -->
<svg version="1.1" id="Layer_1" xmlns="http://www.w3.org/2000/svg" xmlns:xlink="http://www.w3.org/1999/xlink" x="0px" y="0px"
	 viewBox="0 0 129 121" style="enable-background:new 0 0 129 121;" xml:space="preserve">
<g>
	<path d="M117.1,15c-4.2,0-7.6,3.4-7.6,7.6h-91c0-4.2-3.4-7.6-7.6-7.6s-7.6,3.4-7.6,7.6v77.7c0,3.1,2.6,5.7,5.7,5.7h110
		c3.1,0,5.7-2.6,5.7-5.7V22.6C124.7,18.4,121.3,15,117.1,15z M113.3,22.6c0-2.1,1.7-3.8,3.8-3.8s3.8,1.7,3.8,3.8v69.3
		c-1.1-0.6-2.4-1-3.8-1s-2.7,0.4-3.8,1V22.6z M120.9,100.3c0,1-0.9,1.9-1.9,1.9H9c-1,0-1.9-0.9-1.9-1.9v-1.9c0-2.1,1.7-3.8,3.8-3.8
		s3.8,1.7,3.8,3.8c0,1,0.8,1.9,1.9,1.9s1.9-0.8,1.9-1.9V39.6c0-1-0.8-1.9-1.9-1.9s-1.9,0.8-1.9,1.9v52.2c-2.2-1.3-5.4-1.3-7.6,0
		V22.6c0-2.1,1.7-3.8,3.8-3.8s3.8,1.7,3.8,3.8v9.5c0,1,0.8,1.9,1.9,1.9s1.9-0.8,1.9-1.9v-5.7h91v72c0,1,0.8,1.9,1.9,1.9
		s1.9-0.8,1.9-1.9c0-2.1,1.7-3.8,3.8-3.8s3.8,1.7,3.8,3.8V100.3z"/>
	<path d="M38,58c0.4,0.4,0.9,0.6,1.3,0.6c0.5,0,1-0.2,1.3-0.6c0.7-0.7,0.7-1.9,0-2.7l-3.8-3.8c-0.7-0.7-1.9-0.7-2.7,0l-3.8,3.8
		c-0.7,0.7-0.7,1.9,0,2.7c0.7,0.7,1.9,0.7,2.7,0l0.6-0.6v28.8l-0.6-0.6c-0.7-0.7-1.9-0.7-2.7,0c-0.7,0.7-0.7,1.9,0,2.7l3.8,3.8
		c0.4,0.4,0.9,0.6,1.3,0.6s1-0.2,1.3-0.6l3.8-3.8c0.7-0.7,0.7-1.9,0-2.7C40,85,38.8,85,38,85.7l-0.6,0.6V57.5L38,58z"/>
	<path d="M93.8,36.4c-0.7-0.7-1.9-0.7-2.7,0c-0.7,0.7-0.7,1.9,0,2.7l0.6,0.6H51.5l0.6-0.6c0.7-0.7,0.7-1.9,0-2.7
		c-0.7-0.7-1.9-0.7-2.7,0l-3.8,3.8c-0.7,0.7-0.7,1.9,0,2.7l3.8,3.8c0.4,0.4,0.9,0.6,1.3,0.6c0.5,0,1-0.2,1.3-0.6
		c0.7-0.7,0.7-1.9,0-2.7l-0.6-0.6h40.1L91.1,44c-0.7,0.7-0.7,1.9,0,2.7c0.4,0.4,0.9,0.6,1.3,0.6s1-0.2,1.3-0.6l3.8-3.8
		c0.7-0.7,0.7-1.9,0-2.7L93.8,36.4z"/>
	<path d="M89.8,51.8c-0.4-0.5-0.9-0.8-1.6-0.8H54.9c-0.6,0-1.2,0.3-1.6,0.8l-7.9,11.4c-0.4,0.6-0.5,1.3-0.1,2c0.3,0.6,1,1,1.7,1h1.9
		V87c0,3.1,2.6,5.7,5.7,5.7h34.1c3.1,0,5.7-2.6,5.7-5.7V66.2h1.9c0.7,0,1.4-0.4,1.7-1c0.3-0.6,0.3-1.4-0.1-2L89.8,51.8z M55.9,54.8
		h31.4l5.3,7.6h-0.2H50.7h-0.2L55.9,54.8z M69.7,88.9v-5.7c0-1,0.9-1.9,1.9-1.9c1,0,1.9,0.9,1.9,1.9v5.7H69.7z M90.5,87
		c0,1-0.9,1.9-1.9,1.9H77.3v-5.7c0-3.1-2.6-5.7-5.7-5.7c-3.1,0-5.7,2.6-5.7,5.7v5.7H54.5c-1,0-1.9-0.9-1.9-1.9V66.2h37.9V87z"/>
	<path d="M56.4,79.5H64c1,0,1.9-0.8,1.9-1.9V70c0-1-0.8-1.9-1.9-1.9h-7.6c-1,0-1.9,0.8-1.9,1.9v7.6C54.5,78.6,55.4,79.5,56.4,79.5z
		 M58.3,71.9h3.8v3.8h-3.8V71.9z"/>
	<path d="M79.2,79.5h7.6c1,0,1.9-0.8,1.9-1.9V70c0-1-0.8-1.9-1.9-1.9h-7.6c-1,0-1.9,0.8-1.9,1.9v7.6C77.3,78.6,78.1,79.5,79.2,79.5z
		 M81.1,71.9h3.8v3.8h-3.8V71.9z"/>
</g>
</svg>
