<?xml version="1.0" encoding="utf-8"?>
<!-- Generator: Adobe Illustrator 24.2.1, SVG Export Plug-In . SVG Version: 6.00 Build 0)  -->
<svg version="1.1" id="Layer_1" xmlns="http://www.w3.org/2000/svg" xmlns:xlink="http://www.w3.org/1999/xlink" x="0px" y="0px"
	 viewBox="0 0 223.3 240.3" style="enable-background:new 0 0 223.3 240.3;" xml:space="preserve">
<style type="text/css">
	.st0{fill:#EAE9F3;}
	.st1{fill:#F9A01B;}
</style>
<g id="Layer_2">
</g>
<g>
	<g>
		<polygon class="st0" points="137,45 108.8,33.3 108.8,35.9 137,47.6 		"/>
		<polygon class="st0" points="137,41 108.8,29.2 108.8,31.8 137,43.5 		"/>
		<polygon class="st0" points="131.3,34.4 108.8,25 108.8,27.6 131.3,37 		"/>
		<polygon class="st0" points="78.8,45 107,33.3 107,35.9 78.8,47.6 		"/>
		<polygon class="st0" points="78.8,41 107,29.2 107,31.8 78.8,43.5 		"/>
		<polygon class="st0" points="84.4,34.4 107,25 107,27.6 84.4,37 		"/>
		<g>
			<g>
				<polygon class="st0" points="112.6,172.1 108.8,170.8 108.8,165.1 112.6,166.4 				"/>
				<polygon class="st0" points="112.6,160.8 108.8,159.5 108.8,153.9 112.6,155.2 				"/>
				<polygon class="st0" points="112.6,149.5 108.8,148.2 108.8,142.6 112.6,143.9 				"/>
				<polygon class="st0" points="112.6,127 108.8,125.7 108.8,120.1 112.6,121.4 				"/>
				<polygon class="st0" points="112.6,115.7 108.8,114.4 108.8,108.8 112.6,110.1 				"/>
				<polygon class="st0" points="112.6,104.5 108.8,103.2 108.8,97.5 112.6,98.8 				"/>
				<polygon class="st0" points="112.6,93.2 108.8,91.9 108.8,86.3 112.6,87.6 				"/>
				<polygon class="st0" points="112.6,81.9 108.8,80.6 108.8,75 112.6,76.3 				"/>
				<polygon class="st0" points="112.6,70.7 108.8,69.4 108.8,63.7 112.6,65 				"/>
				<polygon class="st0" points="112.6,59.4 108.8,58.1 108.8,52.5 112.6,53.8 				"/>
				<polygon class="st0" points="112.6,48.1 108.8,46.8 108.8,41.2 112.6,42.5 				"/>
			</g>
			<polygon class="st0" points="118.2,173.9 114.5,172.6 114.5,167 118.2,168.3 			"/>
			<polygon class="st0" points="118.2,173.9 114.5,172.6 114.5,167 118.2,168.3 			"/>
			<polygon class="st0" points="118.2,162.6 114.5,161.3 114.5,155.7 118.2,157 			"/>
			<polygon class="st0" points="118.2,151.4 114.5,150.1 114.5,144.4 118.2,145.7 			"/>
			<polygon class="st0" points="118.2,140.1 114.5,138.8 114.5,133.2 118.2,134.5 			"/>
			<polygon class="st0" points="118.2,128.8 114.5,127.5 114.5,121.9 118.2,123.2 			"/>
			<polygon class="st0" points="118.2,95 114.5,93.7 114.5,88.1 118.2,89.4 			"/>
			<polygon class="st0" points="118.2,83.8 114.5,82.5 114.5,76.8 118.2,78.1 			"/>
			<polygon class="st0" points="118.2,61.2 114.5,59.9 114.5,54.3 118.2,55.6 			"/>
			<polygon class="st0" points="118.2,50 114.5,48.7 114.5,43 118.2,44.3 			"/>
			<g>
				<polygon class="st0" points="123.8,153.6 120.1,152.3 120.1,146.7 123.8,148 				"/>
				<polygon class="st0" points="123.8,142.3 120.1,141 120.1,135.4 123.8,136.7 				"/>
				<polygon class="st0" points="123.8,131.1 120.1,129.8 120.1,124.1 123.8,125.4 				"/>
				<polygon class="st0" points="123.8,119.8 120.1,118.5 120.1,112.9 123.8,114.2 				"/>
				<polygon class="st0" points="123.8,108.5 120.1,107.2 120.1,101.6 123.8,102.9 				"/>
				<polygon class="st0" points="123.8,97.3 120.1,96 120.1,90.3 123.8,91.6 				"/>
				<polygon class="st0" points="123.8,74.7 120.1,73.4 120.1,67.8 123.8,69.1 				"/>
				<polygon class="st0" points="123.8,63.5 120.1,62.2 120.1,56.5 123.8,57.8 				"/>
				<polygon class="st0" points="123.8,52.2 120.1,50.9 120.1,45.3 123.8,46.6 				"/>
			</g>
			<g>
				<polygon class="st0" points="129.5,155.9 125.7,154.6 125.7,148.9 129.5,150.2 				"/>
				<polygon class="st0" points="129.5,144.6 125.7,143.3 125.7,137.7 129.5,139 				"/>
				<polygon class="st0" points="129.5,133.3 125.7,132 125.7,126.4 129.5,127.7 				"/>
				<polygon class="st0" points="129.5,122.1 125.7,120.8 125.7,115.1 129.5,116.5 				"/>
				<polygon class="st0" points="129.5,110.8 125.7,109.5 125.7,103.9 129.5,105.2 				"/>
				<polygon class="st0" points="129.5,99.5 125.7,98.2 125.7,92.6 129.5,93.9 				"/>
				<polygon class="st0" points="129.5,88.3 125.7,87 125.7,81.3 129.5,82.7 				"/>
				<polygon class="st0" points="129.5,77 125.7,75.7 125.7,70.1 129.5,71.4 				"/>
				<polygon class="st0" points="129.5,65.7 125.7,64.4 125.7,58.8 129.5,60.1 				"/>
				<polygon class="st0" points="129.5,54.5 125.7,53.2 125.7,47.5 129.5,48.9 				"/>
			</g>
			<g>
				<polygon class="st0" points="135.1,180.8 131.3,179.5 131.3,173.9 135.1,175.2 				"/>
				<polygon class="st0" points="135.1,169.6 131.3,168.3 131.3,162.6 135.1,163.9 				"/>
				<polygon class="st0" points="135.1,158.3 131.3,157 131.3,151.4 135.1,152.7 				"/>
				<polygon class="st0" points="135.1,147 131.3,145.7 131.3,140.1 135.1,141.4 				"/>
				<polygon class="st0" points="135.1,135.8 131.3,134.5 131.3,128.8 135.1,130.2 				"/>
				<polygon class="st0" points="135.1,113.2 131.3,111.9 131.3,106.3 135.1,107.6 				"/>
				<polygon class="st0" points="135.1,102 131.3,100.7 131.3,95 135.1,96.4 				"/>
				<polygon class="st0" points="135.1,90.7 131.3,89.4 131.3,83.8 135.1,85.1 				"/>
				<polygon class="st0" points="135.1,79.4 131.3,78.1 131.3,72.5 135.1,73.8 				"/>
				<polygon class="st0" points="135.1,56.9 131.3,55.6 131.3,50 135.1,51.3 				"/>
			</g>
			<g>
				<polygon class="st0" points="101.3,172.1 105.1,170.8 105.1,165.1 101.3,166.4 				"/>
				<polygon class="st0" points="101.3,160.8 105.1,159.5 105.1,153.9 101.3,155.2 				"/>
				<polygon class="st0" points="101.3,149.5 105.1,148.2 105.1,142.6 101.3,143.9 				"/>
				<polygon class="st0" points="101.3,127 105.1,125.7 105.1,120.1 101.3,121.4 				"/>
				<polygon class="st0" points="101.3,115.7 105.1,114.4 105.1,108.8 101.3,110.1 				"/>
				<polygon class="st0" points="101.3,104.5 105.1,103.2 105.1,97.5 101.3,98.8 				"/>
				<polygon class="st0" points="101.3,93.2 105.1,91.9 105.1,86.3 101.3,87.6 				"/>
				<polygon class="st0" points="101.3,81.9 105.1,80.6 105.1,75 101.3,76.3 				"/>
				<polygon class="st0" points="101.3,70.7 105.1,69.4 105.1,63.7 101.3,65 				"/>
				<polygon class="st0" points="101.3,59.4 105.1,58.1 105.1,52.5 101.3,53.8 				"/>
				<polygon class="st0" points="101.3,48.1 105.1,46.8 105.1,41.2 101.3,42.5 				"/>
			</g>
			<polygon class="st0" points="97.6,162.6 101.3,161.3 101.3,155.7 97.6,157 			"/>
			<polygon class="st0" points="97.6,151.4 101.3,150.1 101.3,144.4 97.6,145.7 			"/>
			<polygon class="st0" points="97.6,140.1 101.3,138.8 101.3,133.2 97.6,134.5 			"/>
			<polygon class="st0" points="97.6,128.8 101.3,127.5 101.3,121.9 97.6,123.2 			"/>
			<polygon class="st0" points="97.6,95 101.3,93.7 101.3,88.1 97.6,89.4 			"/>
			<polygon class="st0" points="97.6,83.8 101.3,82.5 101.3,76.8 97.6,78.1 			"/>
			<polygon class="st0" points="97.6,61.2 101.3,59.9 101.3,54.3 97.6,55.6 			"/>
			<polygon class="st0" points="97.6,50 101.3,48.7 101.3,43 97.6,44.3 			"/>
			<g>
				<polygon class="st0" points="91.9,153.6 95.7,152.3 95.7,146.7 91.9,148 				"/>
				<polygon class="st0" points="91.9,142.3 95.7,141 95.7,135.4 91.9,136.7 				"/>
				<polygon class="st0" points="91.9,131.1 95.7,129.8 95.7,124.1 91.9,125.4 				"/>
				<polygon class="st0" points="91.9,119.8 95.7,118.5 95.7,112.9 91.9,114.2 				"/>
				<polygon class="st0" points="91.9,108.5 95.7,107.2 95.7,101.6 91.9,102.9 				"/>
				<polygon class="st0" points="91.9,97.3 95.7,96 95.7,90.3 91.9,91.6 				"/>
				<polygon class="st0" points="91.9,74.7 95.7,73.4 95.7,67.8 91.9,69.1 				"/>
				<polygon class="st0" points="91.9,63.5 95.7,62.2 95.7,56.5 91.9,57.8 				"/>
				<polygon class="st0" points="91.9,52.2 95.7,50.9 95.7,45.3 91.9,46.6 				"/>
			</g>
			<g>
				<polygon class="st0" points="86.3,178.4 90.1,177.1 90.1,171.5 86.3,172.8 				"/>
				<polygon class="st0" points="86.3,155.9 90.1,154.6 90.1,148.9 86.3,150.2 				"/>
				<polygon class="st0" points="86.3,144.6 90.1,143.3 90.1,137.7 86.3,139 				"/>
				<polygon class="st0" points="86.3,133.3 90.1,132 90.1,126.4 86.3,127.7 				"/>
				<polygon class="st0" points="86.3,122.1 90.1,120.8 90.1,115.1 86.3,116.5 				"/>
				<polygon class="st0" points="86.3,110.8 90.1,109.5 90.1,103.9 86.3,105.2 				"/>
				<polygon class="st0" points="86.3,99.5 90.1,98.2 90.1,92.6 86.3,93.9 				"/>
				<polygon class="st0" points="86.3,88.3 90.1,87 90.1,81.3 86.3,82.7 				"/>
				<polygon class="st0" points="86.3,77 90.1,75.7 90.1,70.1 86.3,71.4 				"/>
				<polygon class="st0" points="86.3,65.7 90.1,64.4 90.1,58.8 86.3,60.1 				"/>
				<polygon class="st0" points="86.3,54.5 90.1,53.2 90.1,47.5 86.3,48.9 				"/>
			</g>
			<g>
				<polygon class="st0" points="80.7,180.8 84.4,179.5 84.4,173.9 80.7,175.2 				"/>
				<polygon class="st0" points="80.7,169.6 84.4,168.3 84.4,162.6 80.7,163.9 				"/>
				<polygon class="st0" points="80.7,158.3 84.4,157 84.4,151.4 80.7,152.7 				"/>
				<polygon class="st0" points="80.7,147 84.4,145.7 84.4,140.1 80.7,141.4 				"/>
				<polygon class="st0" points="80.7,135.8 84.4,134.5 84.4,128.8 80.7,130.2 				"/>
				<polygon class="st0" points="80.7,113.2 84.4,111.9 84.4,106.3 80.7,107.6 				"/>
				<polygon class="st0" points="80.7,102 84.4,100.7 84.4,95 80.7,96.4 				"/>
				<polygon class="st0" points="80.7,90.7 84.4,89.4 84.4,83.8 80.7,85.1 				"/>
				<polygon class="st0" points="80.7,79.4 84.4,78.1 84.4,72.5 80.7,73.8 				"/>
				<polygon class="st0" points="80.7,56.9 84.4,55.6 84.4,50 80.7,51.3 				"/>
			</g>
		</g>
		<g>
			<g>
				<polygon class="st0" points="112.6,172.1 108.8,170.8 108.8,165.1 112.6,166.4 				"/>
				<polygon class="st0" points="112.6,160.8 108.8,159.5 108.8,153.9 112.6,155.2 				"/>
				<polygon class="st0" points="112.6,149.5 108.8,148.2 108.8,142.6 112.6,143.9 				"/>
				<polygon class="st0" points="112.6,127 108.8,125.7 108.8,120.1 112.6,121.4 				"/>
				<polygon class="st0" points="112.6,115.7 108.8,114.4 108.8,108.8 112.6,110.1 				"/>
				<polygon class="st0" points="112.6,104.5 108.8,103.2 108.8,97.5 112.6,98.8 				"/>
				<polygon class="st0" points="112.6,93.2 108.8,91.9 108.8,86.3 112.6,87.6 				"/>
				<polygon class="st0" points="112.6,81.9 108.8,80.6 108.8,75 112.6,76.3 				"/>
				<polygon class="st0" points="112.6,70.7 108.8,69.4 108.8,63.7 112.6,65 				"/>
				<polygon class="st0" points="112.6,59.4 108.8,58.1 108.8,52.5 112.6,53.8 				"/>
				<polygon class="st0" points="112.6,48.1 108.8,46.8 108.8,41.2 112.6,42.5 				"/>
			</g>
			<polygon class="st0" points="118.2,173.9 114.5,172.6 114.5,167 118.2,168.3 			"/>
			<polygon class="st0" points="118.2,173.9 114.5,172.6 114.5,167 118.2,168.3 			"/>
			<polygon class="st0" points="118.2,162.6 114.5,161.3 114.5,155.7 118.2,157 			"/>
			<polygon class="st0" points="118.2,151.4 114.5,150.1 114.5,144.4 118.2,145.7 			"/>
			<polygon class="st0" points="118.2,140.1 114.5,138.8 114.5,133.2 118.2,134.5 			"/>
			<polygon class="st0" points="118.2,128.8 114.5,127.5 114.5,121.9 118.2,123.2 			"/>
			<polygon class="st0" points="118.2,95 114.5,93.7 114.5,88.1 118.2,89.4 			"/>
			<polygon class="st0" points="118.2,83.8 114.5,82.5 114.5,76.8 118.2,78.1 			"/>
			<polygon class="st0" points="118.2,61.2 114.5,59.9 114.5,54.3 118.2,55.6 			"/>
			<polygon class="st0" points="118.2,50 114.5,48.7 114.5,43 118.2,44.3 			"/>
			<g>
				<polygon class="st0" points="123.8,153.6 120.1,152.3 120.1,146.7 123.8,148 				"/>
				<polygon class="st0" points="123.8,142.3 120.1,141 120.1,135.4 123.8,136.7 				"/>
				<polygon class="st0" points="123.8,131.1 120.1,129.8 120.1,124.1 123.8,125.4 				"/>
				<polygon class="st0" points="123.8,119.8 120.1,118.5 120.1,112.9 123.8,114.2 				"/>
				<polygon class="st0" points="123.8,108.5 120.1,107.2 120.1,101.6 123.8,102.9 				"/>
				<polygon class="st0" points="123.8,97.3 120.1,96 120.1,90.3 123.8,91.6 				"/>
				<polygon class="st0" points="123.8,74.7 120.1,73.4 120.1,67.8 123.8,69.1 				"/>
				<polygon class="st0" points="123.8,63.5 120.1,62.2 120.1,56.5 123.8,57.8 				"/>
				<polygon class="st0" points="123.8,52.2 120.1,50.9 120.1,45.3 123.8,46.6 				"/>
			</g>
			<g>
				<polygon class="st0" points="129.5,155.9 125.7,154.6 125.7,148.9 129.5,150.2 				"/>
				<polygon class="st0" points="129.5,144.6 125.7,143.3 125.7,137.7 129.5,139 				"/>
				<polygon class="st0" points="129.5,133.3 125.7,132 125.7,126.4 129.5,127.7 				"/>
				<polygon class="st0" points="129.5,122.1 125.7,120.8 125.7,115.1 129.5,116.5 				"/>
				<polygon class="st0" points="129.5,110.8 125.7,109.5 125.7,103.9 129.5,105.2 				"/>
				<polygon class="st0" points="129.5,99.5 125.7,98.2 125.7,92.6 129.5,93.9 				"/>
				<polygon class="st0" points="129.5,88.3 125.7,87 125.7,81.3 129.5,82.7 				"/>
				<polygon class="st0" points="129.5,77 125.7,75.7 125.7,70.1 129.5,71.4 				"/>
				<polygon class="st0" points="129.5,65.7 125.7,64.4 125.7,58.8 129.5,60.1 				"/>
				<polygon class="st0" points="129.5,54.5 125.7,53.2 125.7,47.5 129.5,48.9 				"/>
			</g>
			<g>
				<polygon class="st0" points="135.1,180.8 131.3,179.5 131.3,173.9 135.1,175.2 				"/>
				<polygon class="st0" points="135.1,169.6 131.3,168.3 131.3,162.6 135.1,163.9 				"/>
				<polygon class="st0" points="135.1,158.3 131.3,157 131.3,151.4 135.1,152.7 				"/>
				<polygon class="st0" points="135.1,147 131.3,145.7 131.3,140.1 135.1,141.4 				"/>
				<polygon class="st0" points="135.1,135.8 131.3,134.5 131.3,128.8 135.1,130.2 				"/>
				<polygon class="st0" points="135.1,113.2 131.3,111.9 131.3,106.3 135.1,107.6 				"/>
				<polygon class="st0" points="135.1,102 131.3,100.7 131.3,95 135.1,96.4 				"/>
				<polygon class="st0" points="135.1,90.7 131.3,89.4 131.3,83.8 135.1,85.1 				"/>
				<polygon class="st0" points="135.1,79.4 131.3,78.1 131.3,72.5 135.1,73.8 				"/>
				<polygon class="st0" points="135.1,56.9 131.3,55.6 131.3,50 135.1,51.3 				"/>
			</g>
			<g>
				<polygon class="st0" points="101.3,172.1 105.1,170.8 105.1,165.1 101.3,166.4 				"/>
				<polygon class="st0" points="101.3,160.8 105.1,159.5 105.1,153.9 101.3,155.2 				"/>
				<polygon class="st0" points="101.3,149.5 105.1,148.2 105.1,142.6 101.3,143.9 				"/>
				<polygon class="st0" points="101.3,127 105.1,125.7 105.1,120.1 101.3,121.4 				"/>
				<polygon class="st0" points="101.3,115.7 105.1,114.4 105.1,108.8 101.3,110.1 				"/>
				<polygon class="st0" points="101.3,104.5 105.1,103.2 105.1,97.5 101.3,98.8 				"/>
				<polygon class="st0" points="101.3,93.2 105.1,91.9 105.1,86.3 101.3,87.6 				"/>
				<polygon class="st0" points="101.3,81.9 105.1,80.6 105.1,75 101.3,76.3 				"/>
				<polygon class="st0" points="101.3,70.7 105.1,69.4 105.1,63.7 101.3,65 				"/>
				<polygon class="st0" points="101.3,59.4 105.1,58.1 105.1,52.5 101.3,53.8 				"/>
				<polygon class="st0" points="101.3,48.1 105.1,46.8 105.1,41.2 101.3,42.5 				"/>
			</g>
			<polygon class="st0" points="97.6,162.6 101.3,161.3 101.3,155.7 97.6,157 			"/>
			<polygon class="st0" points="97.6,151.4 101.3,150.1 101.3,144.4 97.6,145.7 			"/>
			<polygon class="st0" points="97.6,140.1 101.3,138.8 101.3,133.2 97.6,134.5 			"/>
			<polygon class="st0" points="97.6,128.8 101.3,127.5 101.3,121.9 97.6,123.2 			"/>
			<polygon class="st0" points="97.6,95 101.3,93.7 101.3,88.1 97.6,89.4 			"/>
			<polygon class="st0" points="97.6,83.8 101.3,82.5 101.3,76.8 97.6,78.1 			"/>
			<polygon class="st0" points="97.6,61.2 101.3,59.9 101.3,54.3 97.6,55.6 			"/>
			<polygon class="st0" points="97.6,50 101.3,48.7 101.3,43 97.6,44.3 			"/>
			<g>
				<polygon class="st0" points="91.9,153.6 95.7,152.3 95.7,146.7 91.9,148 				"/>
				<polygon class="st0" points="91.9,142.3 95.7,141 95.7,135.4 91.9,136.7 				"/>
				<polygon class="st0" points="91.9,131.1 95.7,129.8 95.7,124.1 91.9,125.4 				"/>
				<polygon class="st0" points="91.9,119.8 95.7,118.5 95.7,112.9 91.9,114.2 				"/>
				<polygon class="st0" points="91.9,108.5 95.7,107.2 95.7,101.6 91.9,102.9 				"/>
				<polygon class="st0" points="91.9,97.3 95.7,96 95.7,90.3 91.9,91.6 				"/>
				<polygon class="st0" points="91.9,74.7 95.7,73.4 95.7,67.8 91.9,69.1 				"/>
				<polygon class="st0" points="91.9,63.5 95.7,62.2 95.7,56.5 91.9,57.8 				"/>
				<polygon class="st0" points="91.9,52.2 95.7,50.9 95.7,45.3 91.9,46.6 				"/>
			</g>
			<g>
				<polygon class="st0" points="86.3,178.4 90.1,177.1 90.1,171.5 86.3,172.8 				"/>
				<polygon class="st0" points="86.3,155.9 90.1,154.6 90.1,148.9 86.3,150.2 				"/>
				<polygon class="st0" points="86.3,144.6 90.1,143.3 90.1,137.7 86.3,139 				"/>
				<polygon class="st0" points="86.3,133.3 90.1,132 90.1,126.4 86.3,127.7 				"/>
				<polygon class="st0" points="86.3,122.1 90.1,120.8 90.1,115.1 86.3,116.5 				"/>
				<polygon class="st0" points="86.3,110.8 90.1,109.5 90.1,103.9 86.3,105.2 				"/>
				<polygon class="st0" points="86.3,99.5 90.1,98.2 90.1,92.6 86.3,93.9 				"/>
				<polygon class="st0" points="86.3,88.3 90.1,87 90.1,81.3 86.3,82.7 				"/>
				<polygon class="st0" points="86.3,77 90.1,75.7 90.1,70.1 86.3,71.4 				"/>
				<polygon class="st0" points="86.3,65.7 90.1,64.4 90.1,58.8 86.3,60.1 				"/>
				<polygon class="st0" points="86.3,54.5 90.1,53.2 90.1,47.5 86.3,48.9 				"/>
			</g>
			<g>
				<polygon class="st0" points="80.7,180.8 84.4,179.5 84.4,173.9 80.7,175.2 				"/>
				<polygon class="st0" points="80.7,169.6 84.4,168.3 84.4,162.6 80.7,163.9 				"/>
				<polygon class="st0" points="80.7,158.3 84.4,157 84.4,151.4 80.7,152.7 				"/>
				<polygon class="st0" points="80.7,147 84.4,145.7 84.4,140.1 80.7,141.4 				"/>
				<polygon class="st0" points="80.7,135.8 84.4,134.5 84.4,128.8 80.7,130.2 				"/>
				<polygon class="st0" points="80.7,113.2 84.4,111.9 84.4,106.3 80.7,107.6 				"/>
				<polygon class="st0" points="80.7,102 84.4,100.7 84.4,95 80.7,96.4 				"/>
				<polygon class="st0" points="80.7,90.7 84.4,89.4 84.4,83.8 80.7,85.1 				"/>
				<polygon class="st0" points="80.7,79.4 84.4,78.1 84.4,72.5 80.7,73.8 				"/>
				<polygon class="st0" points="80.7,56.9 84.4,55.6 84.4,50 80.7,51.3 				"/>
			</g>
		</g>
	</g>
	<g>
		<g>
			<polygon class="st0" points="163.2,170.1 161.4,169.1 161.4,164.8 163.2,165.8 			"/>
			<polygon class="st0" points="163.2,152.9 161.4,151.9 161.4,147.5 163.2,148.5 			"/>
			<polygon class="st0" points="163.2,144.2 161.4,143.2 161.4,138.9 163.2,139.9 			"/>
			<polygon class="st0" points="163.2,135.6 161.4,134.6 161.4,130.3 163.2,131.3 			"/>
			<polygon class="st0" points="163.2,127 161.4,125.9 161.4,121.6 163.2,122.6 			"/>
			<polygon class="st0" points="163.2,118.3 161.4,117.3 161.4,113 163.2,114 			"/>
			<polygon class="st0" points="163.2,109.7 161.4,108.7 161.4,104.4 163.2,105.4 			"/>
			<polygon class="st0" points="163.2,101 161.4,100 161.4,95.7 163.2,96.7 			"/>
		</g>
		<polygon class="st0" points="167,171.5 165.1,170.5 165.1,166.2 167,167.2 		"/>
		<polygon class="st0" points="167,162.9 165.1,161.9 165.1,157.6 167,158.6 		"/>
		<polygon class="st0" points="167,154.3 165.1,153.3 165.1,148.9 167,150 		"/>
		<polygon class="st0" points="167,128.4 165.1,127.4 165.1,123 167,124 		"/>
		<polygon class="st0" points="167,119.7 165.1,118.7 165.1,114.4 167,115.4 		"/>
		<polygon class="st0" points="167,93.8 165.1,92.8 165.1,88.5 167,89.5 		"/>
		<g>
			<polygon class="st0" points="170.7,173.3 168.9,172.3 168.9,167.9 170.7,168.9 			"/>
			<polygon class="st0" points="170.7,164.6 168.9,163.6 168.9,159.3 170.7,160.3 			"/>
			<polygon class="st0" points="170.7,147.3 168.9,146.3 168.9,142 170.7,143 			"/>
			<polygon class="st0" points="170.7,138.7 168.9,137.7 168.9,133.4 170.7,134.4 			"/>
			<polygon class="st0" points="170.7,130.1 168.9,129.1 168.9,124.8 170.7,125.8 			"/>
			<polygon class="st0" points="170.7,112.8 168.9,111.8 168.9,107.5 170.7,108.5 			"/>
			<polygon class="st0" points="170.7,104.2 168.9,103.2 168.9,98.8 170.7,99.9 			"/>
			<polygon class="st0" points="170.7,95.5 168.9,94.5 168.9,90.2 170.7,91.2 			"/>
		</g>
		<g>
			<polygon class="st0" points="174.5,166.4 172.6,165.4 172.6,161 174.5,162 			"/>
			<polygon class="st0" points="174.5,157.7 172.6,156.7 172.6,152.4 174.5,153.4 			"/>
			<polygon class="st0" points="174.5,149.1 172.6,148.1 172.6,143.8 174.5,144.8 			"/>
			<polygon class="st0" points="174.5,140.5 172.6,139.4 172.6,135.1 174.5,136.1 			"/>
			<polygon class="st0" points="174.5,131.8 172.6,130.8 172.6,126.5 174.5,127.5 			"/>
			<polygon class="st0" points="174.5,123.2 172.6,122.2 172.6,117.9 174.5,118.9 			"/>
			<polygon class="st0" points="174.5,114.5 172.6,113.5 172.6,109.2 174.5,110.2 			"/>
			<polygon class="st0" points="174.5,105.9 172.6,104.9 172.6,100.6 174.5,101.6 			"/>
			<polygon class="st0" points="174.5,97.3 172.6,96.3 172.6,92 174.5,93 			"/>
		</g>
		<polygon class="st0" points="180.1,168.2 178.2,167.2 178.2,162.9 180.1,163.9 		"/>
		<polygon class="st0" points="180.1,159.6 178.2,158.6 178.2,154.3 180.1,155.3 		"/>
		<polygon class="st0" points="180.1,142.3 178.2,141.3 178.2,137 180.1,138 		"/>
		<polygon class="st0" points="180.1,133.7 178.2,132.7 178.2,128.4 180.1,129.4 		"/>
		<polygon class="st0" points="180.1,125 178.2,124 178.2,119.7 180.1,120.7 		"/>
		<polygon class="st0" points="180.1,116.4 178.2,115.4 178.2,111.1 180.1,112.1 		"/>
		<polygon class="st0" points="180.1,99.1 178.2,98.1 178.2,93.8 180.1,94.8 		"/>
		<g>
			<polygon class="st0" points="155.7,170.1 157.6,169.1 157.6,164.8 155.7,165.8 			"/>
			<polygon class="st0" points="155.7,152.9 157.6,151.9 157.6,147.5 155.7,148.5 			"/>
			<polygon class="st0" points="155.7,144.2 157.6,143.2 157.6,138.9 155.7,139.9 			"/>
			<polygon class="st0" points="155.7,135.6 157.6,134.6 157.6,130.3 155.7,131.3 			"/>
			<polygon class="st0" points="155.7,127 157.6,125.9 157.6,121.6 155.7,122.6 			"/>
			<polygon class="st0" points="155.7,118.3 157.6,117.3 157.6,113 155.7,114 			"/>
			<polygon class="st0" points="155.7,109.7 157.6,108.7 157.6,104.4 155.7,105.4 			"/>
		</g>
		<polygon class="st0" points="152,162.9 153.9,161.9 153.9,157.6 152,158.6 		"/>
		<polygon class="st0" points="152,154.3 153.9,153.3 153.9,148.9 152,150 		"/>
		<polygon class="st0" points="152,128.4 153.9,127.4 153.9,123 152,124 		"/>
		<polygon class="st0" points="152,119.7 153.9,118.7 153.9,114.4 152,115.4 		"/>
		<polygon class="st0" points="152,102.5 153.9,101.4 153.9,97.1 152,98.1 		"/>
		<polygon class="st0" points="152,93.8 153.9,92.8 153.9,88.5 152,89.5 		"/>
		<g>
			<polygon class="st0" points="148.2,173.3 150.1,172.3 150.1,167.9 148.2,168.9 			"/>
			<polygon class="st0" points="148.2,164.6 150.1,163.6 150.1,159.3 148.2,160.3 			"/>
			<polygon class="st0" points="148.2,156 150.1,155 150.1,150.7 148.2,151.7 			"/>
			<polygon class="st0" points="148.2,147.3 150.1,146.3 150.1,142 148.2,143 			"/>
			<polygon class="st0" points="148.2,138.7 150.1,137.7 150.1,133.4 148.2,134.4 			"/>
			<polygon class="st0" points="148.2,130.1 150.1,129.1 150.1,124.8 148.2,125.8 			"/>
			<polygon class="st0" points="148.2,112.8 150.1,111.8 150.1,107.5 148.2,108.5 			"/>
			<polygon class="st0" points="148.2,104.2 150.1,103.2 150.1,98.8 148.2,99.9 			"/>
		</g>
		<g>
			<polygon class="st0" points="142.6,166.4 144.5,165.4 144.5,161 142.6,162 			"/>
			<polygon class="st0" points="142.6,157.7 144.5,156.7 144.5,152.4 142.6,153.4 			"/>
			<polygon class="st0" points="142.6,149.1 144.5,148.1 144.5,143.8 142.6,144.8 			"/>
			<polygon class="st0" points="142.6,140.5 144.5,139.4 144.5,135.1 142.6,136.1 			"/>
			<polygon class="st0" points="142.6,131.8 144.5,130.8 144.5,126.5 142.6,127.5 			"/>
			<polygon class="st0" points="142.6,123.2 144.5,122.2 144.5,117.9 142.6,118.9 			"/>
			<polygon class="st0" points="142.6,114.5 144.5,113.5 144.5,109.2 142.6,110.2 			"/>
			<polygon class="st0" points="142.6,105.9 144.5,104.9 144.5,100.6 142.6,101.6 			"/>
			<polygon class="st0" points="142.6,97.3 144.5,96.3 144.5,92 142.6,93 			"/>
		</g>
		<g>
			<polygon class="st0" points="138.9,142.3 140.7,141.3 140.7,137 138.9,138 			"/>
			<polygon class="st0" points="138.9,133.7 140.7,132.7 140.7,128.4 138.9,129.4 			"/>
			<polygon class="st0" points="138.9,125 140.7,124 140.7,119.7 138.9,120.7 			"/>
			<polygon class="st0" points="138.9,116.4 140.7,115.4 140.7,111.1 138.9,112.1 			"/>
		</g>
	</g>
	<g>
		<g>
			<polygon class="st1" points="52.6,170.1 48.8,168.8 48.8,163.2 52.6,164.5 			"/>
			<polygon class="st1" points="52.6,147.6 48.8,146.3 48.8,140.6 52.6,141.9 			"/>
			<polygon class="st1" points="52.6,136.3 48.8,135 48.8,129.4 52.6,130.7 			"/>
			<polygon class="st1" points="52.6,125 48.8,123.7 48.8,118.1 52.6,119.4 			"/>
			<polygon class="st1" points="52.6,113.8 48.8,112.5 48.8,106.8 52.6,108.1 			"/>
			<polygon class="st1" points="52.6,102.5 48.8,101.2 48.8,95.6 52.6,96.9 			"/>
			<polygon class="st1" points="52.6,91.2 48.8,89.9 48.8,84.3 52.6,85.6 			"/>
			<polygon class="st1" points="52.6,80 48.8,78.7 48.8,73 52.6,74.3 			"/>
			<polygon class="st1" points="52.6,68.7 48.8,67.4 48.8,61.8 52.6,63.1 			"/>
		</g>
		<polygon class="st1" points="58.2,171.9 54.4,170.6 54.4,165 58.2,166.3 		"/>
		<polygon class="st1" points="58.2,160.7 54.4,159.4 54.4,153.7 58.2,155 		"/>
		<polygon class="st1" points="58.2,149.4 54.4,148.1 54.4,142.5 58.2,143.8 		"/>
		<polygon class="st1" points="58.2,115.6 54.4,114.3 54.4,108.7 58.2,110 		"/>
		<polygon class="st1" points="58.2,104.3 54.4,103 54.4,97.4 58.2,98.7 		"/>
		<polygon class="st1" points="58.2,81.8 54.4,80.5 54.4,74.9 58.2,76.2 		"/>
		<polygon class="st1" points="58.2,70.5 54.4,69.2 54.4,63.6 58.2,64.9 		"/>
		<g>
			<polygon class="st1" points="63.8,174.2 60.1,172.9 60.1,167.2 63.8,168.5 			"/>
			<polygon class="st1" points="63.8,162.9 60.1,161.6 60.1,156 63.8,157.3 			"/>
			<polygon class="st1" points="63.8,151.6 60.1,150.3 60.1,144.7 63.8,146 			"/>
			<polygon class="st1" points="63.8,140.4 60.1,139.1 60.1,133.4 63.8,134.7 			"/>
			<polygon class="st1" points="63.8,129.1 60.1,127.8 60.1,122.2 63.8,123.5 			"/>
			<polygon class="st1" points="63.8,117.8 60.1,116.5 60.1,110.9 63.8,112.2 			"/>
			<polygon class="st1" points="63.8,95.3 60.1,94 60.1,88.4 63.8,89.7 			"/>
			<polygon class="st1" points="63.8,84 60.1,82.7 60.1,77.1 63.8,78.4 			"/>
			<polygon class="st1" points="63.8,72.8 60.1,71.5 60.1,65.8 63.8,67.2 			"/>
		</g>
		<g>
			<polygon class="st1" points="69.4,165.2 65.7,163.9 65.7,158.2 69.4,159.6 			"/>
			<polygon class="st1" points="69.4,153.9 65.7,152.6 65.7,147 69.4,148.3 			"/>
			<polygon class="st1" points="69.4,142.6 65.7,141.3 65.7,135.7 69.4,137 			"/>
			<polygon class="st1" points="69.4,131.4 65.7,130.1 65.7,124.4 69.4,125.8 			"/>
			<polygon class="st1" points="69.4,120.1 65.7,118.8 65.7,113.2 69.4,114.5 			"/>
			<polygon class="st1" points="69.4,108.9 65.7,107.5 65.7,101.9 69.4,103.2 			"/>
			<polygon class="st1" points="69.4,97.6 65.7,96.3 65.7,90.6 69.4,92 			"/>
			<polygon class="st1" points="69.4,86.3 65.7,85 65.7,79.4 69.4,80.7 			"/>
			<polygon class="st1" points="69.4,75.1 65.7,73.7 65.7,68.1 69.4,69.4 			"/>
		</g>
		<g>
			<polygon class="st1" points="75.1,167.6 71.3,166.3 71.3,160.7 75.1,162 			"/>
			<polygon class="st1" points="75.1,156.3 71.3,155 71.3,149.4 75.1,150.7 			"/>
			<polygon class="st1" points="75.1,133.8 71.3,132.5 71.3,126.9 75.1,128.2 			"/>
			<polygon class="st1" points="75.1,122.5 71.3,121.2 71.3,115.6 75.1,116.9 			"/>
			<polygon class="st1" points="75.1,111.3 71.3,110 71.3,104.3 75.1,105.7 			"/>
			<polygon class="st1" points="75.1,100 71.3,98.7 71.3,93.1 75.1,94.4 			"/>
			<polygon class="st1" points="75.1,77.5 71.3,76.2 71.3,70.5 75.1,71.9 			"/>
		</g>
		<polygon class="st1" points="48.8,173 46.9,173.4 46.9,62.5 48.8,62.1 		"/>
		<polygon class="st1" points="45,147.1 43.2,147.5 43.2,63.4 45,63 		"/>
		<polygon class="st1" points="41.3,168.9 39.4,169.3 39.4,64.2 41.3,63.8 		"/>
		<polygon class="st1" points="50.7,51.8 48.8,50.8 48.8,46.3 50.7,47.3 		"/>
		<polygon class="st1" points="56.3,62.3 54.4,61.3 54.4,56.8 56.3,57.8 		"/>
		<polygon class="st1" points="56.3,53.3 54.4,52.2 54.4,47.7 56.3,48.8 		"/>
		<polygon class="st1" points="60.1,64.1 58.2,63.1 58.2,58.6 60.1,59.6 		"/>
		<polygon class="st1" points="63.8,66 61.9,64.9 61.9,60.4 63.8,61.4 		"/>
		<polygon class="st1" points="63.8,56.9 61.9,55.9 61.9,51.3 63.8,52.4 		"/>
		<polygon class="st1" points="48.8,60.1 46.9,60.7 46.9,46.9 48.8,46.3 		"/>
		<polygon class="st1" points="45,61.4 43.2,62.1 43.2,48.3 45,47.6 		"/>
		<polygon class="st1" points="43.2,62.5 41.3,63.2 41.3,49.4 43.2,48.7 		"/>
	</g>
	<g>
		<polygon class="st0" points="204.5,172.6 208.3,171.6 208.3,167.1 204.5,168.1 		"/>
		<polygon class="st0" points="204.5,154.7 208.3,153.7 208.3,149.2 204.5,150.3 		"/>
		<polygon class="st0" points="204.5,145.8 208.3,144.8 208.3,140.3 204.5,141.4 		"/>
		<polygon class="st0" points="204.5,136.9 208.3,135.9 208.3,131.4 204.5,132.4 		"/>
		<polygon class="st0" points="204.5,128 208.3,126.9 208.3,122.5 204.5,123.5 		"/>
		<polygon class="st0" points="204.5,119.1 208.3,118 208.3,113.6 204.5,114.6 		"/>
		<polygon class="st0" points="204.5,110.1 208.3,109.1 208.3,104.6 204.5,105.7 		"/>
		<polygon class="st0" points="204.5,101.2 208.3,100.2 208.3,95.7 204.5,96.7 		"/>
		<polygon class="st0" points="204.5,92.3 208.3,91.2 208.3,86.8 204.5,87.8 		"/>
		<polygon class="st0" points="200.8,174.1 204.5,173 204.5,168.6 200.8,169.6 		"/>
		<polygon class="st0" points="200.8,165.1 204.5,164.1 204.5,159.6 200.8,160.7 		"/>
		<polygon class="st0" points="200.8,156.2 204.5,155.2 204.5,150.7 200.8,151.7 		"/>
		<polygon class="st0" points="200.8,129.4 204.5,128.4 204.5,123.9 200.8,125 		"/>
		<polygon class="st0" points="200.8,120.5 204.5,119.5 204.5,115 200.8,116 		"/>
		<polygon class="st0" points="200.8,102.7 204.5,101.6 204.5,97.2 200.8,98.2 		"/>
		<g>
			<polygon class="st0" points="195.1,175.8 198.9,174.8 198.9,170.3 195.1,171.4 			"/>
			<polygon class="st0" points="195.1,166.9 198.9,165.9 198.9,161.4 195.1,162.4 			"/>
			<polygon class="st0" points="195.1,158 198.9,156.9 198.9,152.5 195.1,153.5 			"/>
			<polygon class="st0" points="195.1,149.1 198.9,148 198.9,143.6 195.1,144.6 			"/>
			<polygon class="st0" points="195.1,140.1 198.9,139.1 198.9,134.6 195.1,135.7 			"/>
			<polygon class="st0" points="195.1,131.2 198.9,130.2 198.9,125.7 195.1,126.7 			"/>
			<polyline class="st0" points="201.3,138.5 204.5,137.4 204.5,133 201.3,134 			"/>
			<polygon class="st0" points="200.8,93.8 204.5,92.8 204.5,88.3 200.8,89.3 			"/>
			<polygon class="st0" points="195.1,95.5 198.9,94.5 198.9,90 195.1,91 			"/>
		</g>
		<g>
			<polygon class="st0" points="189.5,177.6 193.3,176.6 193.3,172.1 189.5,173.2 			"/>
			<polygon class="st0" points="204.5,163.4 208.3,162.4 208.3,157.9 204.5,159 			"/>
			<polygon class="st0" points="189.5,150.8 193.3,149.8 193.3,145.3 189.5,146.4 			"/>
			<polygon class="st0" points="189.5,141.9 193.3,140.9 193.3,136.4 189.5,137.5 			"/>
			<polygon class="st0" points="183.9,152.2 187.6,151.1 187.6,146.7 183.9,147.7 			"/>
			<polygon class="st0" points="189.5,115.1 193.3,114.1 193.3,109.6 189.5,110.7 			"/>
			<polygon class="st0" points="189.5,106.2 193.3,105.2 193.3,100.7 189.5,101.8 			"/>
			<polygon class="st0" points="189.5,97.3 193.3,96.3 193.3,91.8 189.5,92.8 			"/>
		</g>
		<polygon class="st0" points="183.9,161.7 187.6,160.7 187.6,156.2 183.9,157.2 		"/>
		<polygon class="st0" points="183.9,134.9 187.6,133.9 187.6,129.4 183.9,130.5 		"/>
		<polygon class="st0" points="183.9,126 187.6,125 187.6,120.5 183.9,121.5 		"/>
		<polygon class="st0" points="183.9,117.1 187.6,116 187.6,111.6 183.9,112.6 		"/>
		<polygon class="st0" points="183.9,99.2 187.6,98.2 187.6,93.7 183.9,94.8 		"/>
		<polygon class="st0" points="210.1,171 212,171.3 212,87.3 210.1,87 		"/>
		<polygon class="st0" points="213.9,164.8 215.8,165.1 215.8,88.4 213.9,88 		"/>
		<polygon class="st0" points="217.6,167.9 219.5,168.2 219.5,88.6 217.6,88.3 		"/>
		<polygon class="st0" points="206.4,85.6 208.3,84.7 208.3,81.1 206.4,82 		"/>
		<polygon class="st0" points="202.6,80.1 204.5,79.2 204.5,75.7 202.6,76.5 		"/>
		<polygon class="st0" points="198.9,88.7 200.8,87.8 200.8,84.2 198.9,85.1 		"/>
		<polygon class="st0" points="198.9,81.5 200.8,80.7 200.8,77.1 198.9,78 		"/>
		<polygon class="st0" points="193.3,82.9 195.1,82.1 195.1,78.5 193.3,79.4 		"/>
		<polygon class="st0" points="210.1,85.4 212,85.9 212,75 210.1,74.5 		"/>
		<polygon class="st0" points="215.8,86.5 213.9,87 213.9,76.1 215.8,75.6 		"/>
		<polygon class="st0" points="215.8,87.4 217.6,87.9 217.6,76.9 215.8,76.4 		"/>
	</g>
	<g>
		<polygon class="st1" points="18.8,164.3 16.9,163.3 16.9,159.4 18.8,160.3 		"/>
		<polygon class="st1" points="18.8,156.4 16.9,155.5 16.9,151.6 18.8,152.5 		"/>
		<polygon class="st1" points="18.8,148.5 16.9,147.6 16.9,143.7 18.8,144.6 		"/>
		<polygon class="st1" points="18.8,140.7 16.9,139.8 16.9,135.8 18.8,136.7 		"/>
		<polygon class="st1" points="18.8,132.8 16.9,131.9 16.9,128 18.8,128.9 		"/>
		<polygon class="st1" points="18.8,125 16.9,124 16.9,120.1 18.8,121 		"/>
		<polygon class="st1" points="18.8,117.1 16.9,116.2 16.9,112.2 18.8,113.2 		"/>
		<polygon class="st1" points="18.8,172.3 16.9,171.4 16.9,167.4 18.8,168.4 		"/>
		<polygon class="st1" points="22.5,165.5 20.7,164.6 20.7,160.7 22.5,161.6 		"/>
		<polygon class="st1" points="22.5,142 20.7,141 20.7,137.1 22.5,138 		"/>
		<polygon class="st1" points="22.5,134.1 20.7,133.2 20.7,129.2 22.5,130.2 		"/>
		<polygon class="st1" points="22.5,118.4 20.7,117.5 20.7,113.5 22.5,114.4 		"/>
		<g>
			<polygon class="st1" points="26.3,175 24.4,174 24.4,170.1 26.3,171 			"/>
			<polygon class="st1" points="26.3,159.2 24.4,158.3 24.4,154.4 26.3,155.3 			"/>
			<polygon class="st1" points="26.3,151.4 24.4,150.5 24.4,146.5 26.3,147.4 			"/>
			<polygon class="st1" points="26.3,143.5 24.4,142.6 24.4,138.7 26.3,139.6 			"/>
			<polygon class="st1" points="26.3,127.8 24.4,126.9 24.4,122.9 26.3,123.9 			"/>
			<polygon class="st1" points="26.3,119.9 24.4,119 24.4,115.1 26.3,116 			"/>
			<polygon class="st1" points="26.3,112.1 24.4,111.2 24.4,107.2 26.3,108.1 			"/>
		</g>
		<g>
			<polygon class="st1" points="30,168.7 28.2,167.8 28.2,163.8 30,164.8 			"/>
			<polygon class="st1" points="30,160.8 28.2,159.9 28.2,156 30,156.9 			"/>
			<polygon class="st1" points="30,153 28.2,152 28.2,148.1 30,149 			"/>
			<polygon class="st1" points="22.5,173.2 20.7,172.3 20.7,168.4 22.5,169.3 			"/>
			<polygon class="st1" points="22.5,149.7 20.7,148.8 20.7,144.9 22.5,145.8 			"/>
			<polygon class="st1" points="30,129.4 28.2,128.5 28.2,124.5 30,125.4 			"/>
			<polygon class="st1" points="30,121.5 28.2,120.6 28.2,116.7 30,117.6 			"/>
			<polygon class="st1" points="30,113.7 28.2,112.7 28.2,108.8 30,109.7 			"/>
		</g>
		<g>
			<polygon class="st1" points="33.8,170.4 31.9,169.5 31.9,165.5 33.8,166.5 			"/>
			<polygon class="st1" points="33.8,154.7 31.9,153.7 31.9,149.8 33.8,150.7 			"/>
			<polygon class="st1" points="33.8,146.8 31.9,145.9 31.9,142 33.8,142.9 			"/>
			<polygon class="st1" points="33.8,138.9 31.9,138 31.9,134.1 33.8,135 			"/>
			<polygon class="st1" points="33.8,131.1 31.9,130.2 31.9,126.2 33.8,127.1 			"/>
			<polygon class="st1" points="22.5,126.4 20.7,125.4 20.7,121.5 22.5,122.4 			"/>
		</g>
		<polygon class="st1" points="11.3,164.3 13.2,163.3 13.2,159.4 11.3,160.3 		"/>
		<polygon class="st1" points="11.3,156.4 13.2,155.5 13.2,151.6 11.3,152.5 		"/>
		<polygon class="st1" points="11.3,148.5 13.2,147.6 13.2,143.7 11.3,144.6 		"/>
		<polygon class="st1" points="11.3,140.7 13.2,139.8 13.2,135.8 11.3,136.7 		"/>
		<polygon class="st1" points="11.3,132.8 13.2,131.9 13.2,128 11.3,128.9 		"/>
		<polygon class="st1" points="11.3,125 13.2,124 13.2,120.1 11.3,121 		"/>
		<polygon class="st1" points="7.5,173.4 9.4,172.5 9.4,168.6 7.5,169.5 		"/>
		<polygon class="st1" points="7.5,142 9.4,141 9.4,137.1 7.5,138 		"/>
		<polygon class="st1" points="7.5,134.1 9.4,133.2 9.4,129.2 7.5,130.2 		"/>
		<polygon class="st1" points="7.5,118.4 9.4,117.5 9.4,113.5 7.5,114.4 		"/>
		<polygon class="st1" points="7.5,110.5 9.4,109.6 9.4,105.7 7.5,106.6 		"/>
		<polygon class="st1" points="3.8,175 5.6,174 5.6,170.1 3.8,171 		"/>
		<polygon class="st1" points="3.8,167.1 5.6,166.2 5.6,162.3 3.8,163.2 		"/>
		<polygon class="st1" points="3.8,159.2 5.6,158.3 5.6,154.4 3.8,155.3 		"/>
		<polygon class="st1" points="3.8,151.4 5.6,150.5 5.6,146.5 3.8,147.4 		"/>
		<polygon class="st1" points="3.8,143.5 5.6,142.6 5.6,138.7 3.8,139.6 		"/>
		<polygon class="st1" points="3.8,127.8 5.6,126.9 5.6,122.9 3.8,123.9 		"/>
		<polygon class="st1" points="3.8,119.9 5.6,119 5.6,115.1 3.8,116 		"/>
	</g>
</g>
</svg>
