<?xml version="1.0" encoding="utf-8"?>
<!-- Generator: Adobe Illustrator 24.2.1, SVG Export Plug-In . SVG Version: 6.00 Build 0)  -->
<svg version="1.1" id="Layer_1" xmlns="http://www.w3.org/2000/svg" xmlns:xlink="http://www.w3.org/1999/xlink" x="0px" y="0px"
	 viewBox="0 0 142 123" style="enable-background:new 0 0 142 123;" xml:space="preserve">
<g>
	<path d="M33.6,85.1c-3.3,0-5.9,2.6-5.9,5.9s2.6,5.9,5.9,5.9s5.9-2.6,5.9-5.9S36.9,85.1,33.6,85.1z M33.6,93c-1.1,0-2-0.9-2-2
		s0.9-2,2-2s2,0.9,2,2S34.7,93,33.6,93z"/>
	<path d="M80.8,85.1c-3.3,0-5.9,2.6-5.9,5.9s2.6,5.9,5.9,5.9s5.9-2.6,5.9-5.9S84.1,85.1,80.8,85.1z M80.8,93c-1.1,0-2-0.9-2-2
		s0.9-2,2-2s2,0.9,2,2S81.9,93,80.8,93z"/>
	<path d="M112.3,85.1c-3.3,0-5.9,2.6-5.9,5.9s2.6,5.9,5.9,5.9s5.9-2.6,5.9-5.9S115.6,85.1,112.3,85.1z M112.3,93c-1.1,0-2-0.9-2-2
		s0.9-2,2-2s2,0.9,2,2S113.4,93,112.3,93z"/>
	<path d="M134,55.6V24.1c0-3.3-2.6-5.9-5.9-5.9s-5.9,2.6-5.9,5.9v10.5l-3.3-9.2c-0.8-2.3-2.9-3.8-5.4-3.9l-18.5-0.6
		c-0.2,0-0.5,0-0.7,0.1l-8.1,2.8c-1,0.4-1.6,1.5-1.2,2.5c0.4,1,1.5,1.6,2.5,1.2l7.8-2.7l18.2,0.6c0.8,0,1.5,0.5,1.8,1.3l6.3,17.2
		c0.3,0.8,0.1,1.6-0.5,2.1l-13.5,12.1L73.5,70c-0.8,0.3-1.7,0-2.2-0.7c-1.4-1.7-2.6-3.4-3.7-5.2c0,0,0,0,0,0l-4.4-18.8
		c-0.1-2.3-1.3-4.4-3-5.8c0-0.3,0-0.6,0-0.9c0-0.9,0.5-1.7,1.3-2l18.1-6.3c1-0.4,1.6-1.5,1.2-2.5c-0.4-1-1.5-1.6-2.5-1.2L60.1,33
		c-2.2,0.8-3.7,2.7-3.9,5c-0.3,0-0.6-0.1-0.9-0.1c-4.3,0-7.9,3.5-7.9,7.9v31.5h-3.9V35.9c0-3.3-2.6-5.9-5.9-5.9H20.9
		c-2.7,0-5.1,1.8-5.7,4.5L8.3,62C8.1,62.8,8,63.6,8,64.4v14.8v7.9c0,3.3,2.6,5.9,5.9,5.9H20c1,6.7,6.7,11.8,13.6,11.8
		S46.3,99.7,47.2,93h20c1,6.7,6.7,11.8,13.6,11.8S93.5,99.7,94.5,93h4.3c1,6.7,6.7,11.8,13.6,11.8S125,99.7,126,93h2.1
		c3.3,0,5.9-2.6,5.9-5.9v-7.9c0-1.1-0.9-2-2-2h-8.6l10.4-20.8C133.9,56.2,134,55.9,134,55.6z M72.9,74c0.6,0,1.3-0.1,1.9-0.3
		l34.2-12c0.2-0.1,0.5-0.2,0.7-0.4l12.5-11.2v0.7L95.8,77.3H70.6l-1-4.2C70.6,73.7,71.7,74,72.9,74z M98.7,89.1h-4.3
		c-0.4-3.1-1.9-5.8-4-7.9h12.2C100.6,83.3,99.2,86,98.7,89.1z M67.2,89.1h-20c-0.4-3.1-1.9-5.8-4-7.9h28
		C69.1,83.3,67.7,86,67.2,89.1z M55.3,41.8c2.2,0,3.9,1.8,3.9,3.9s-1.8,3.9-3.9,3.9s-3.9-1.8-3.9-3.9S53.1,41.8,55.3,41.8z
		 M51.3,52.5c1.2,0.7,2.5,1.1,3.9,1.1c2,0,3.9-0.8,5.3-2.1l6,25.7H51.3V52.5z M12.1,63l5.3-21.2h12.2c1.1,0,2,0.9,2,2V49
		c0,2.9-2.1,5.3-4.9,5.8l-9.2,1.6c-1.1,0.2-1.8,1.2-1.6,2.3c0.2,1,1,1.6,1.9,1.6c0.1,0,0.2,0,0.3,0l9.2-1.6c4.7-0.8,8.2-4.9,8.2-9.7
		v-5.2c0-3.3-2.6-5.9-5.9-5.9H18.4l0.6-2.4c0.2-0.9,1-1.5,1.9-1.5h16.6c1.1,0,2,0.9,2,2v41.3H11.9V64.4C11.9,64,12,63.5,12.1,63z
		 M11.9,87.1v-5.9h12c-2.1,2.1-3.6,4.8-4,7.9h-6.1C12.8,89.1,11.9,88.2,11.9,87.1z M33.6,100.9c-5.4,0-9.8-4.4-9.8-9.8
		s4.4-9.8,9.8-9.8s9.8,4.4,9.8,9.8S39,100.9,33.6,100.9z M80.8,100.9c-5.4,0-9.8-4.4-9.8-9.8s4.4-9.8,9.8-9.8s9.8,4.4,9.8,9.8
		S86.3,100.9,80.8,100.9z M112.3,100.9c-5.4,0-9.8-4.4-9.8-9.8s4.4-9.8,9.8-9.8s9.8,4.4,9.8,9.8S117.8,100.9,112.3,100.9z
		 M130.1,87.1c0,1.1-0.9,2-2,2H126c-0.4-3.1-1.9-5.8-4-7.9h8.1V87.1z M130.1,55.1L119,77.3h-17.7L125.5,53c0.4-0.4,0.6-0.9,0.6-1.4
		V24.1c0-1.1,0.9-2,2-2s2,0.9,2,2V55.1z"/>
	<path d="M33.6,67.4c1.1,0,2-0.9,2-2v-3.9c0-1.1-0.9-2-2-2s-2,0.9-2,2v3.9C31.6,66.5,32.5,67.4,33.6,67.4z"/>
</g>
</svg>
