<?xml version="1.0" encoding="utf-8"?>
<!-- Generator: Adobe Illustrator 24.2.1, SVG Export Plug-In . SVG Version: 6.00 Build 0)  -->
<svg version="1.1" id="Layer_1" xmlns="http://www.w3.org/2000/svg" xmlns:xlink="http://www.w3.org/1999/xlink" x="0px" y="0px"
	 viewBox="0 0 144 123" style="enable-background:new 0 0 144 123;" xml:space="preserve">
<g>
	<path d="M124.3,75.2c-0.9,0-1.7,0.8-1.7,1.7c0,0.9-0.8,1.7-1.7,1.7H97.3c-0.9,0-1.7-0.8-1.7-1.7V66.8c0-0.9,0.8-1.7,1.7-1.7
		c0.9,0,1.7-0.8,1.7-1.7c0-0.9-0.8-1.7-1.7-1.7c-1.3,0-2.5,0.5-3.4,1.3c-0.9-0.8-2.1-1.3-3.4-1.3H38.3c-0.9,0-1.7-0.8-1.7-1.7V49.9
		c0-0.9,0.8-1.7,1.7-1.7h28.7c0.9,0,1.7-0.8,1.7-1.7s-0.8-1.7-1.7-1.7H53.4c-0.9,0-1.7-0.8-1.7-1.7V33c0-0.9,0.8-1.7,1.7-1.7h3.4
		c0.9,0,1.7-0.8,1.7-1.7S57.7,28,56.8,28h-3.4c-1.3,0-2.5,0.5-3.4,1.3C49.2,28.5,48,28,46.7,28H23.1C20.3,28,18,30.2,18,33v10.1
		c0,1.3,0.5,2.5,1.3,3.4c-0.8,0.9-1.3,2.1-1.3,3.4V60c0,1.3,0.5,2.5,1.3,3.4c-0.8,0.9-1.3,2.1-1.3,3.4v10.1c0,1.3,0.5,2.5,1.3,3.4
		c-0.8,0.9-1.3,2.1-1.3,3.4v10.1c0,1.3,0.5,2.5,1.3,3.4c-0.8,0.9-1.3,2.1-1.3,3.4v10.1c0,2.8,2.3,5.1,5.1,5.1h23.6
		c1.3,0,2.5-0.5,3.4-1.3c0.9,0.8,2.1,1.3,3.4,1.3h37.1c1.3,0,2.5-0.5,3.4-1.3c0.9,0.8,2.1,1.3,3.4,1.3h23.6c2.8,0,5.1-2.3,5.1-5.1
		v-10.1c0-1.3-0.5-2.5-1.3-3.4c0.8-0.9,1.3-2.1,1.3-3.4V83.7c0-1.3-0.5-2.5-1.3-3.4c0.8-0.9,1.3-2.1,1.3-3.4
		C126,76,125.2,75.2,124.3,75.2z M120.9,82c0.9,0,1.7,0.8,1.7,1.7v10.1c0,0.9-0.8,1.7-1.7,1.7h-8.4c-0.9,0-1.7-0.8-1.7-1.7V83.7
		c0-0.9,0.8-1.7,1.7-1.7H120.9z M105.8,82c0.9,0,1.7,0.8,1.7,1.7v10.1c0,0.9-0.8,1.7-1.7,1.7H82.1c-0.9,0-1.7-0.8-1.7-1.7V83.7
		c0-0.9,0.8-1.7,1.7-1.7H105.8z M90.6,65.1c0.9,0,1.7,0.8,1.7,1.7v10.1c0,0.9-0.8,1.7-1.7,1.7H66.9c-0.9,0-1.7,0.8-1.7,1.7
		S66,82,66.9,82h8.4c0.9,0,1.7,0.8,1.7,1.7v10.1c0,0.9-0.8,1.7-1.7,1.7H38.3c-0.9,0-1.7-0.8-1.7-1.7V83.7c0-0.9,0.8-1.7,1.7-1.7
		h21.9c0.9,0,1.7-0.8,1.7-1.7s-0.8-1.7-1.7-1.7h-6.8c-0.9,0-1.7-0.8-1.7-1.7V66.8c0-0.9,0.8-1.7,1.7-1.7H90.6z M21.4,93.8V83.7
		c0-0.9,0.8-1.7,1.7-1.7h8.4c0.9,0,1.7,0.8,1.7,1.7v10.1c0,0.9-0.8,1.7-1.7,1.7h-8.4C22.1,95.5,21.4,94.7,21.4,93.8z M46.7,65.1
		c0.9,0,1.7,0.8,1.7,1.7v10.1c0,0.9-0.8,1.7-1.7,1.7H23.1c-0.9,0-1.7-0.8-1.7-1.7V66.8c0-0.9,0.8-1.7,1.7-1.7H46.7z M21.4,60V49.9
		c0-0.9,0.8-1.7,1.7-1.7h8.4c0.9,0,1.7,0.8,1.7,1.7V60c0,0.9-0.8,1.7-1.7,1.7h-8.4C22.1,61.7,21.4,61,21.4,60z M21.4,33
		c0-0.9,0.8-1.7,1.7-1.7h23.6c0.9,0,1.7,0.8,1.7,1.7v10.1c0,0.9-0.8,1.7-1.7,1.7H23.1c-0.9,0-1.7-0.8-1.7-1.7V33z M46.7,112.3H23.1
		c-0.9,0-1.7-0.8-1.7-1.7v-10.1c0-0.9,0.8-1.7,1.7-1.7h23.6c0.9,0,1.7,0.8,1.7,1.7v10.1C48.4,111.6,47.6,112.3,46.7,112.3z
		 M90.6,112.3H53.4c-0.9,0-1.7-0.8-1.7-1.7v-10.1c0-0.9,0.8-1.7,1.7-1.7h37.1c0.9,0,1.7,0.8,1.7,1.7v10.1
		C92.3,111.6,91.5,112.3,90.6,112.3z M122.6,110.7c0,0.9-0.8,1.7-1.7,1.7H97.3c-0.9,0-1.7-0.8-1.7-1.7v-10.1c0-0.9,0.8-1.7,1.7-1.7
		h23.6c0.9,0,1.7,0.8,1.7,1.7V110.7z"/>
	<path d="M75,56c1.2,2.6,3.5,4.3,6.3,4.8c0.5,0.1,1,0.1,1.5,0.1c2.3,0,4.4-0.9,6-2.5l6.5-6.5l4.9,4.9l-1.2,1.2
		c-0.7,0.7-0.7,1.7,0,2.4l12.2,12.2c1.7,1.7,3.9,2.5,6.1,2.5s4.4-0.8,6.1-2.5c1.6-1.6,2.5-3.8,2.5-6.1c0-2.3-0.9-4.5-2.5-6.1
		l-12.2-12.2c-0.7-0.7-1.7-0.7-2.4,0l-1.2,1.2l-4.9-4.9l6.5-6.5c2-2,2.9-4.8,2.4-7.5c-0.5-2.8-2.2-5.1-4.8-6.3L93,17.7
		c-0.8-0.4-1.8,0-2.2,0.8s0,1.8,0.8,2.2l13.8,6.6c1.6,0.7,2.6,2.1,2.9,3.8c0.3,1.7-0.2,3.4-1.5,4.6l-6.5,6.5l-3.7-3.7
		c-1.9-1.9-5.3-1.9-7.3,0c-1,1-1.5,2.3-1.5,3.6c0,1.4,0.5,2.7,1.5,3.6l3.7,3.7L86.5,56c-1.2,1.2-2.9,1.7-4.6,1.5
		c-1.7-0.3-3.1-1.4-3.8-2.9L62.4,21.4c-0.9-2-0.5-4.4,1-5.9l2.9-2.9c1.6-1.6,3.9-2,5.9-1l12.6,5.9c0.8,0.4,1.8,0,2.2-0.8
		c0.4-0.8,0-1.8-0.8-2.2L73.7,8.5c-3.3-1.6-7.2-0.9-9.8,1.7L61,13.1c-2.6,2.6-3.2,6.5-1.7,9.8L75,56z M121.1,62.9
		c1,1,1.5,2.3,1.5,3.7c0,1.4-0.5,2.7-1.5,3.7c-2,2-5.3,2-7.4,0l-11-11l7.4-7.4L121.1,62.9z M91.2,42.2c0-0.5,0.2-0.9,0.5-1.2
		c0.3-0.3,0.8-0.5,1.2-0.5s0.9,0.2,1.2,0.5l11,11l-2.5,2.5l-11-11C91.4,43.1,91.2,42.7,91.2,42.2z"/>
</g>
</svg>
